PathFileType	4	(X/Y/Z)	60_2_6_p0_0-488.trc
DataRate	CameraRate	NumFrames	NumMarkers	Units	OrigDataRate	OrigDataStartFrame	OrigNumFrames
60.0	60.0	7	27	m	60.0	183	489
Frame#	Time	RHip			RKnee			RAnkle			RBigToe			RSmallToe			RHeel			LHip			LKnee			LAnkle			LBigToe			LSmallToe			LHeel			Neck			Head			Nose			RShoulder			RElbow			RWrist			RThumb			RIndex			RPinky			LShoulder			LElbow			LWrist			LThumb			LIndex			LPinky			
		X1	Y1	Z1	X2	Y2	Z2	X3	Y3	Z3	X4	Y4	Z4	X5	Y5	Z5	X6	Y6	Z6	X7	Y7	Z7	X8	Y8	Z8	X9	Y9	Z9	X10	Y10	Z10	X11	Y11	Z11	X12	Y12	Z12	X13	Y13	Z13	X14	Y14	Z14	X15	Y15	Z15	X16	Y16	Z16	X17	Y17	Z17	X18	Y18	Z18	X19	Y19	Z19	X20	Y20	Z20	X21	Y21	Z21	X22	Y22	Z22	X23	Y23	Z23	X24	Y24	Z24	X25	Y25	Z25	X26	Y26	Z26	X27	Y27	Z27	
183	3.05	0.31804245664168357	0.4020729045937959	-0.19617950158248693	0.3238958884875175	0.6279020936040094	0.2326732467463535	0.3142365447612486	0.7532150926304281	0.5978542542583588	0.2887789338459175	0.6588929328863566	0.7023450243914571	0.3655265295973761	0.6564717902041924	0.6826257266426604	0.2782048437445214	0.8759475217154624	0.6569783349942825	0.10045409874033868	0.47288530815101376	-0.20797053303163643	0.09713039428415236	0.6434466204135959	0.22158841563433002	0.10106073200399597	0.785387959866188	0.5887692500720689	0.10198869152254418	0.622739227338333	0.6751162304792927	0.05468154595002962	0.6759371356866001	0.6675921603061674	0.1090115971680176	0.8385909310103964	0.619401267094139	0.2415125132653121	0.301617850532574	-0.7365738424876758	0.25240893217968297	0.17420435819314903	-0.9387609876598968	0.2492419120574723	0.17029621720347074	-0.8075901869155682	0.38403215444766214	0.3165962836690333	-0.6708190068020855	0.5307355858795835	0.17761563805459704	-0.48550751153471433	0.4679255482096409	0.037547417268617087	-0.6470825354927084	0.38241493736146404	0.07922865357505822	-0.743997780498214	0.3656514447060929	0.030052597752923668	-0.7549725764451293	0.4001583742475614	-0.034462923343247694	-0.7033694562614251	0.08826834492783467	0.3264922039113292	-0.6933677485074662	-0.08810806444713506	0.17020813297570975	-0.48227201546065834	-0.016181873885539644	0.05249115452229222	-0.6270417714134127	0.0713453310237393	0.05964492589052452	-0.6968227067790662	0.06219536064074049	0.02626764929687865	-0.7381830713343146	0.045614891693836646	0.007380153806903529	-0.7392127507674853
184	3.066666666666667	0.3179647083270164	0.4019063196248888	-0.19594440645095917	0.3230955607772109	0.6253952276424666	0.2287711042198659	0.31426964492472625	0.7534509993997448	0.5977827598536769	0.2888425904073413	0.6588571593104365	0.7023980841053321	0.36560300457798606	0.6565833446524042	0.6826232494417875	0.28251618482906243	0.8918371753737305	0.6600986877324272	0.09733581613742123	0.4591744608820223	-0.20715236936913387	0.09710633042890907	0.6432842150407682	0.22169659707474515	0.10103053944457537	0.7852785913917746	0.5888641731181267	0.10197269913742224	0.6221600466148074	0.6748750104137193	0.05469387847682514	0.6756611205270374	0.6674126965774303	0.10891528717674523	0.8381076816597818	0.6193506927193501	0.2410869448687869	0.2873204189342698	-0.733400502770163	0.2525552394540837	0.17441548332329784	-0.939108132507	0.24927692157439751	0.1708671191073298	-0.8077195730225618	0.3881416450295895	0.32782229307276356	-0.673233252349447	0.5292602902259963	0.19852882906801278	-0.46666398607261883	0.4605355571086222	0.042520903076359626	-0.6254843707171605	0.3716940366052558	0.040128854525760635	-0.7183592652064371	0.36190491847921163	0.01884321708534169	-0.7327025224322642	0.3930425286054165	-0.0418606959178419	-0.683693403995168	0.08866115044669803	0.3274817086419953	-0.6931250481031723	-0.08786195494137085	0.17733153448091754	-0.46215844106282306	-0.01615569428276158	0.05609995186320843	-0.6139176134026813	0.050208711413749184	0.08799810456903082	-0.6899863914482113	0.05430537152176502	0.024491764245627035	-0.7245562251577058	0.040628568983735174	0.031225968206104786	-0.7094848287241841
185	3.0833333333333335	0.3140058875600846	0.41643508548193414	-0.1965661402009321	0.32308282851080966	0.625626770295318	0.22874570939331312	0.31426783207606557	0.7535026970283538	0.5976794722451777	0.28888089781980897	0.6588409109053666	0.7022706546845104	0.3656775804178582	0.656501958836002	0.6825206996220472	0.28262939026441714	0.8919993301683654	0.6600451415306425	0.10044435778066711	0.47278320203128854	-0.20789919542162225	0.09710029633566829	0.6434750414941477	0.22170470737260717	0.09999200219340304	0.787064875340772	0.5934009330720369	0.10197619487139803	0.6224095427912237	0.6750430090468931	0.054644984404178365	0.67590115785665	0.6676904362441642	0.10801309793303429	0.8399592571614922	0.6244065552420108	0.24533769809424522	0.2874316087990009	-0.7366814131693818	0.25230113282812144	0.17404218431590843	-0.9435503079227162	0.24934197616304454	0.17165674077354656	-0.8080155676136099	0.39273319296320874	0.328519577800661	-0.6766591847154905	0.5271911635642854	0.21794946598516618	-0.44697245501972804	0.45691792945492726	0.03363531317197364	-0.6120430376471095	0.36471021886848326	0.037165901895610164	-0.7113110345749051	0.35712861105366644	0.019948958800241296	-0.7201052492967295	0.3935679647453754	-0.03680825360516723	-0.6690879154700552	0.08885759289438551	0.3283214992018738	-0.6895967930906138	-0.09035155943636601	0.20091596335211598	-0.46170321339084797	-0.0224947952932638	0.047849918603523424	-0.601375358704295	0.036484888243167056	0.13340744665703164	-0.6777728527856702	0.049133027316768	0.04347763725739668	-0.703123026389624	0.03612682615406663	0.031536201957974304	-0.6796883069925467
186	3.1	0.3140456577735355	0.41659703641341156	-0.1967084560638758	0.3230848949866283	0.625535259013883	0.22879252372143458	0.31332626290000953	0.7542752528189173	0.6019666902613262	0.28893461148227184	0.6586213716023042	0.702274671330213	0.36568978676483554	0.6562085295449115	0.6825480224987804	0.2873851736281305	0.8727323083707687	0.6561820267355718	0.10522688885817272	0.45922510273562667	-0.20724810968524998	0.09705728110453153	0.6434964551309063	0.2216452239407883	0.09573709978419913	0.7851992929201453	0.5931085689662089	0.10198063469279382	0.6220852044525009	0.6749815175004534	0.054679996290994036	0.6756457160639551	0.6675424320427521	0.10788451130899794	0.8397500392997849	0.6244031389724423	0.24538489861758428	0.2893184675268516	-0.7335750902470692	0.25238913385686	0.17421833958063893	-0.9442493108816458	0.24944666059231252	0.17136971217899094	-0.8079639832064852	0.3972990351760651	0.3328408475601721	-0.6702301485149381	0.5282486274547269	0.2257350928985922	-0.42599956935147687	0.47270906998222695	0.04838485456270338	-0.5983358975394817	0.37992226124809664	0.057050318712497966	-0.6893114765385923	0.37794159651330383	0.00970108006038514	-0.6913225570279152	0.4031039444983698	-0.026616109468027956	-0.649512084159828	0.08909885221779501	0.32942480580594624	-0.6890892337645502	-0.0862480271566899	0.20565334738003718	-0.4555367284548508	-0.025193249780293102	0.07344099011485679	-0.5891494721960328	0.02740326797383625	0.14670965942878914	-0.6678869030295103	0.031332517381076966	0.07623783857541397	-0.6951013897373943	0.01643632933658944	0.05224120109263067	-0.6688961734162148
187	3.1166666666666667	0.31807340910653537	0.40226992002956025	-0.19605744248463244	0.32390651910135365	0.6279817806040326	0.23270060911555054	0.31757988013948085	0.7698201992517684	0.6047796854127001	0.2888358822440612	0.6581177763430244	0.7024156788093207	0.3614113789229546	0.6541824030472241	0.6823918039109726	0.2874798296938199	0.8724396644699267	0.656113788477135	0.10531612681322805	0.4591370162621199	-0.20727329537335712	0.09708241763457584	0.6434906881030636	0.2217496532852768	0.09996204865124178	0.7869945132318936	0.5934955334993522	0.10712573154040468	0.6066910442021582	0.6713787464124339	0.05474344966627713	0.6756372834462776	0.6675955960970615	0.10803491337326271	0.8400036672729692	0.6240753539013041	0.24529491585649577	0.2892500919422635	-0.7332865668823465	0.25246726502293354	0.17446212212048656	-0.94442918710244	0.24918042198450147	0.16969841122508703	-0.8104760315772623	0.3970847603596278	0.3321408677554414	-0.6700213160770986	0.5220757993694424	0.24213523290562383	-0.416866975931862	0.47229800576571007	0.036115022965486236	-0.591265935148011	0.38482797357536475	0.05831755029393044	-0.6887774152651202	0.39492249334316193	-0.020390927892334706	-0.6738787451498122	0.40557150419199517	-0.04329669609941149	-0.6349143366417735	0.08905719782965572	0.3292903416102439	-0.6856273788646011	-0.08549993134553699	0.25661032140477064	-0.4587392186463383	-0.03212301469516996	0.07013942959298484	-0.5529164712176747	0.022064133364567397	0.12647069953708484	-0.656144309216401	0.02119281737135793	0.08712247392662478	-0.6789185387207531	0.004572487343059512	0.06608954571986168	-0.6277389051127585
188	3.1333333333333333	0.31413615412469853	0.41680932058074743	-0.19661377866747373	0.32391638951694457	0.6277991814154107	0.23275483973252353	0.3176227233963632	0.7695710558222257	0.6045962213832768	0.29280929934387895	0.6727747508245266	0.7054675382292821	0.37375452880698695	0.6534915043762052	0.6817557091259889	0.2876165483039933	0.8720426763528669	0.6558785586089527	0.10121712176017733	0.45796284744932386	-0.20720754590725884	0.09705912725731096	0.6436350473960385	0.22167846066184613	0.10105845453476174	0.7851601646020849	0.5889074993223189	0.10714342341059983	0.6064692896620906	0.6711669714669337	0.05491094314213457	0.6752624741944645	0.6671176894511759	0.11259094319290544	0.8443480055818073	0.624785839436833	0.24057740759057994	0.3008014317730987	-0.739113885770492	0.2525369861342089	0.17504770276237575	-0.9448157957686609	0.24916928628366355	0.16936153209115087	-0.8106546462935618	0.40128758286248933	0.33390719989384565	-0.6704516031699579	0.5193670493877125	0.257229733893533	-0.41099696698265636	0.45625266445102336	0.02538594390183504	-0.5799019451605186	0.38492452194750665	0.04574460772023804	-0.6802685938055536	0.393387338041726	-0.04412418043188046	-0.662924647600048	0.4015182402749451	-0.042997459080577005	-0.6193508084559182	0.08902276051950309	0.3298679998873441	-0.6821323494611825	-0.07995620960061237	0.27424337223539974	-0.4512722107150892	-0.03472125538695197	0.09671043865630219	-0.5397907869928524	0.02133689632182128	0.12776590788381556	-0.6444953171449525	0.02037172046012756	0.09339188730653619	-0.663462957836351	-0.009700149422216656	0.05652554929272218	-0.6122164319538307
189	3.15	0.3140423456973775	0.41692599210935477	-0.19653124150177267	0.32391375402798883	0.6278253898908264	0.23277904409349487	0.3133364198527471	0.7541840210275722	0.6017835923512127	0.29274525861715756	0.6727164055958789	0.7056318166599236	0.36563806134342275	0.6553484113424985	0.6825766776580225	0.2872642057979126	0.872378949215921	0.6522006920066153	0.1011606900552513	0.4577209467041008	-0.2072892408127403	0.09706705521251005	0.6435004658830128	0.22178527231377046	0.10001109310539617	0.7869063229921235	0.5932808262193486	0.11007161372802012	0.6216837055288601	0.6746916025209853	0.054864321279798185	0.6757349721697689	0.6674899836883147	0.11269016594250743	0.8449742456045564	0.6250135905077558	0.2368573000794863	0.3154893434962124	-0.7389384821533415	0.25287093723294984	0.1770248757554614	-0.9420713647453659	0.24912353682069402	0.16919501202527373	-0.8106315248981777	0.3975301835430951	0.32373940442546717	-0.6644862859786361	0.5194179410232388	0.259292590489086	-0.4037301092531312	0.4673694127081238	0.06369183661828097	-0.5441837155919087	0.4092805599642364	0.07291852525418668	-0.6564684416951452	0.40644999619115696	-0.013660165055013936	-0.6349678959950642	0.4051990758308924	-0.029903416329253515	-0.6022643647240254	0.0888820228841648	0.32942846326182873	-0.68183419455443	-0.09039534712039579	0.30270270897955076	-0.44355745702036375	-0.04152387295241529	0.10030358719148846	-0.532959637080665	0.01913940920232226	0.11858241310537111	-0.6324765743411911	0.014035494076024767	0.09751917812551712	-0.645658377222754	-0.021571547197883945	0.05815681739161914	-0.5917581130798387
